<?xml version="1.0" encoding="UTF-8" standalone="no"?>
<!-- Created with Inkscape (http://www.inkscape.org/) -->

<svg
   width="88.898445mm"
   height="123.24414mm"
   viewBox="0 0 88.898445 123.24414"
   version="1.1"
   id="svg1"
   xml:space="preserve"
   xmlns="http://www.w3.org/2000/svg"
   xmlns:svg="http://www.w3.org/2000/svg"><defs
     id="defs1" /><g
     id="layer1"
     style="display:inline;fill:#e80000;fill-opacity:1;fill-rule:nonzero"
     transform="translate(-60.550821,-66.624901)"><path
       style="display:inline;mix-blend-mode:normal;fill:#000000;fill-opacity:1;fill-rule:nonzero;stroke-width:0.264583"
       d="M 158.1923,149.45439 V 85.377363 c -1.2611,-6.685999 -6.06778,-13.886745 -13.64277,-13.642774 -7.575,-0.243971 -12.38168,6.956775 -13.64278,13.642774 v 64.077027"
       id="path11"
       transform="matrix(0.8796913,0,0,0.71231731,8.7069856,15.531406)" /><path
       style="display:inline;mix-blend-mode:normal;fill:#000000;fill-opacity:1;fill-rule:nonzero;stroke-width:0.264583"
       d="M 158.19221,149.45439 V 85.377363 c -1.2611,-6.685999 -6.06778,-13.886745 -13.64277,-13.642774"
       id="path14"
       transform="matrix(0.8796913,0,0,0.99738016,8.7069856,-4.9157411)" /><path
       id="path41"
       style="display:inline;mix-blend-mode:normal;fill:#000000;fill-opacity:1;fill-rule:nonzero;stroke-width:0;stroke-dasharray:none"
       d="m 104.99979,107.13093 a 44.449039,41.368412 0 0 0 -9.39839,0.93534 c -3.201786,1.96906 -11.971519,8.66268 12.66176,10.77712 29.00293,2.48952 18.42265,20.41426 18.42265,20.41426 0,0 -1.24492,-14.81273 -11.32748,-15.18615 -9.91854,-0.36736 -30.715461,-4.7905 -29.219919,-13.03125 a 44.449039,41.368412 0 0 0 -25.587585,37.45973 44.449039,41.368412 0 0 0 44.448964,41.36905 44.449039,41.368412 0 0 0 44.44949,-41.36905 44.449039,41.368412 0 0 0 -44.44949,-41.36905 z m -19.538857,38.26381 c 4.842799,0 8.769491,3.92669 8.769491,8.76949 0,4.8428 -3.926692,8.76743 -8.769491,8.76743 -4.842798,0 -8.767423,-3.92463 -8.767423,-8.76743 0,-4.8428 3.924625,-8.76949 8.767423,-8.76949 z m 39.078237,0 c 4.8428,0 8.76742,3.92669 8.76742,8.76949 0,4.8428 -3.92462,8.76743 -8.76742,8.76743 -4.8428,0 -8.76949,-3.92463 -8.76949,-8.76743 0,-4.8428 3.92669,-8.76949 8.76949,-8.76949 z" /><path
       style="display:inline;mix-blend-mode:normal;fill:#000000;fill-opacity:1;fill-rule:nonzero;stroke-width:0.264583"
       d="M 60.732352,149.45439 V 85.377363 C 61.99345,78.691364 66.800128,71.490618 74.375125,71.734589 81.950122,71.490618 86.7568,78.691364 88.017898,85.377363 v 64.077027"
       id="path22"
       transform="matrix(0.87969131,0,0,0.97277277,8.7069857,-3.1506882)" /><path
       style="display:inline;fill:#000000;stroke-width:0;stroke-dasharray:none"
       d="m 136.55029,120.46176 8.96228,-0.46679 1.8049,13.87909 -1.40035,3.57868 -11.70076,-8.1843 z"
       id="path26" /></g></svg>
